<?xml version="1.0" encoding="UTF-8"?>
<svg version="1.1" xmlns="http://www.w3.org/2000/svg" width="500" height="500">
<path d="M0 0 C1.65 0 3.3 0 5 0 C5.66 1.32 6.32 2.64 7 4 C7.66 4 8.32 4 9 4 C10.3046875 5.6953125 10.3046875 5.6953125 11.875 8.125 C15.42382214 13.3626746 19.38512452 18.08621811 23.56005859 22.82470703 C26.71130068 26.42031494 29.6283293 30.12109574 32.47094727 33.96484375 C35.0283254 37.36869241 37.73738433 40.64659597 40.4375 43.9375 C41.57608848 45.33417286 42.71411333 46.73130539 43.8515625 48.12890625 C44.39200195 48.79293457 44.93244141 49.45696289 45.48925781 50.14111328 C47.44174631 52.54354499 49.38720422 54.95069898 51.3125 57.375 C51.84488281 58.04273438 52.37726563 58.71046875 52.92578125 59.3984375 C54 61 54 61 54 63 C54.66 63 55.32 63 56 63 C57.54076588 64.8649811 58.96753238 66.72578451 60.375 68.6875 C63.74139948 73.29865159 63.74139948 73.29865159 67.2890625 77.76953125 C69 80 69 80 69 82 C69.58265625 82.226875 70.1653125 82.45375 70.765625 82.6875 C73.61203354 84.3595162 74.8996097 86.27976811 76.75 89 C77.36359375 89.886875 77.9771875 90.77375 78.609375 91.6875 C80 94 80 94 80 96 C80.66 96 81.32 96 82 96 C82 96.66 82 97.32 82 98 C82.66 98 83.32 98 84 98 C85.7265625 100.1171875 85.7265625 100.1171875 87.625 102.875 C88.25664062 103.77992188 88.88828125 104.68484375 89.5390625 105.6171875 C91 108 91 108 91 110 C91.66 110 92.32 110 93 110 C94.5078125 111.4609375 94.5078125 111.4609375 96.125 113.375 C96.66382813 114.00148438 97.20265625 114.62796875 97.7578125 115.2734375 C99 117 99 117 99 119 C99.66 119 100.32 119 101 119 C102.33619621 120.65770921 103.59462139 122.37852016 104.8125 124.125 C107.10975852 127.37631124 109.38594558 130.55895896 112 133.5625 C114 136 114 136 114 138 C114.66 138 115.32 138 116 138 C117.60143654 139.90416556 119.08924744 141.81244804 120.5625 143.8125 C121.46860621 145.01801521 122.37618383 146.22242572 123.28515625 147.42578125 C123.74164551 148.03115723 124.19813477 148.6365332 124.66845703 149.26025391 C126.55336155 151.72300228 128.52135001 154.11221739 130.5 156.5 C133.87619251 160.59837272 137.18428917 164.74132951 140.4375 168.9375 C140.86289063 169.48148438 141.28828125 170.02546875 141.7265625 170.5859375 C143.80229822 173.27969162 145.62513335 175.882133 147 179 C147.66 179 148.32 179 149 179 C150.69140625 181.08203125 150.69140625 181.08203125 152.5625 183.8125 C153.18253906 184.70582031 153.80257812 185.59914063 154.44140625 186.51953125 C156 189 156 189 157 192 C157.66 192 158.32 192 159 192 C160.58533702 193.71332754 162.09541215 195.49689047 163.5625 197.3125 C164.36816406 198.29863281 165.17382812 199.28476562 166.00390625 200.30078125 C168 203 168 203 169 206 C170.13609923 207.13609923 171.27626467 208.26834746 172.43359375 209.3828125 C175.92490268 212.98730601 178.90365292 217.05825162 182 221 C182.97448872 222.21936712 183.94979193 223.43808364 184.92578125 224.65625 C185.9298947 225.9165016 186.93380238 227.17691719 187.9375 228.4375 C188.42234863 229.04070068 188.90719727 229.64390137 189.40673828 230.26538086 C191.44024041 232.83315724 192.95547824 234.86643473 194 238 C194.62390625 238.31195313 195.2478125 238.62390625 195.890625 238.9453125 C198.44022374 240.22011187 199.27497955 241.46215791 200.75 243.875 C201.17796875 244.55304688 201.6059375 245.23109375 202.046875 245.9296875 C203 248 203 248 203 252 C197.93747858 253.01878044 193.09114166 253.15421952 187.95288086 253.16113281 C187.06270767 253.16609772 186.17253448 253.17106262 185.25538635 253.17617798 C182.32519751 253.19072526 179.3950627 253.19758716 176.46484375 253.203125 C174.42273457 253.20888009 172.3806254 253.21463778 170.33851624 253.22039795 C166.06413523 253.23088502 161.78977291 253.2367435 157.51538086 253.24023438 C152.03871743 253.2457315 146.56230105 253.26979517 141.08571529 253.29820633 C136.87096937 253.31682259 132.65628328 253.32203765 128.44149971 253.32357025 C126.42208052 253.32659673 124.40266238 253.33462509 122.38328362 253.34775543 C119.56123794 253.36480374 116.73980083 253.36293928 113.91772461 253.35644531 C113.08485931 253.3656601 112.25199402 253.37487488 111.39389038 253.3843689 C106.77304831 253.35104762 103.75542719 252.99451513 100 250 C98.6875 247.8125 98.6875 247.8125 98 246 C97.34 246 96.68 246 96 246 C94.36860063 244.07412421 92.86276775 242.15673283 91.375 240.125 C90.95476562 239.56941406 90.53453125 239.01382813 90.1015625 238.44140625 C87 234.26235288 87 234.26235288 87 232 C86.34 232 85.68 232 85 232 C83.76333449 230.29540699 82.53256816 228.58595723 81.34375 226.84765625 C79.95662086 224.8306373 79.95662086 224.8306373 77.6875 222.75 C75.23890531 220.24446125 73.33963595 217.78281732 71.3125 214.9375 C67.65769918 209.81804118 63.7276097 205.01503297 59.67578125 200.20703125 C56.684784 196.6418343 53.76856775 193.01953424 50.875 189.375 C50.38926514 188.77067139 49.90353027 188.16634277 49.40307617 187.54370117 C46 183.23363095 46 183.23363095 46 181 C45.34 181 44.68 181 44 181 C42.39858023 179.09585438 40.91072908 177.18754039 39.4375 175.1875 C38.5352993 173.98719366 37.63162629 172.78799271 36.7265625 171.58984375 C36.04255371 170.68274658 36.04255371 170.68274658 35.34472656 169.75732422 C33.39248793 167.20608717 31.3575015 164.72719254 29.3125 162.25 C26.49833774 158.8299416 23.69218757 155.40575122 20.9375 151.9375 C20.36902344 151.22464844 19.80054687 150.51179687 19.21484375 149.77734375 C18 148 18 148 18 146 C17.40960938 145.76667969 16.81921875 145.53335938 16.2109375 145.29296875 C13.46460497 143.68689796 12.35798841 141.96893529 10.625 139.3125 C8.06327534 135.48919481 5.40889612 132.02208381 2.26171875 128.66796875 C-0.50649321 125.00844396 -1.25003802 121.36757868 -1.24723816 116.85652161 C-1.25143265 115.84284012 -1.25562714 114.82915863 -1.25994873 113.78475952 C-1.25432922 112.68378937 -1.24870972 111.58281921 -1.24291992 110.44848633 C-1.24481827 109.28054031 -1.24671661 108.1125943 -1.24867249 106.90925598 C-1.25237626 103.05011272 -1.24168303 99.19115777 -1.23046875 95.33203125 C-1.2292768 92.65353618 -1.22877299 89.97504903 -1.2290802 87.29655457 C-1.22814468 81.68539079 -1.21947388 76.07428122 -1.20581055 70.46313477 C-1.19006325 63.97209494 -1.1848133 57.48111436 -1.1855461 50.99005681 C-1.18615588 44.74566374 -1.18105647 38.50128997 -1.17275429 32.25690269 C-1.16956392 29.59865117 -1.16759936 26.94039789 -1.16686058 24.28214455 C-1.16470231 20.57584246 -1.15596987 16.86961602 -1.14526367 13.16333008 C-1.14571686 12.05628723 -1.14617004 10.94924438 -1.14663696 9.80865479 C-1.14237198 8.80343277 -1.13810699 7.79821075 -1.13371277 6.76252747 C-1.13203692 5.88594388 -1.13036108 5.00936029 -1.12863445 4.10621357 C-1 2 -1 2 0 0 Z " fill="#FE4452" transform="translate(90,112)"/>
<path d="M0 0 C0.763125 0.0825 1.52625 0.165 2.3125 0.25 C3.53555546 2.69611091 3.44907977 4.29480928 3.46640015 7.03030396 C3.47500061 8.03960464 3.48360107 9.04890533 3.49246216 10.08879089 C3.49885208 11.75631157 3.49885208 11.75631157 3.50537109 13.45751953 C3.51763733 15.20895515 3.51763733 15.20895515 3.53015137 16.99577332 C3.5550413 20.87477244 3.57168437 24.75376394 3.5859375 28.6328125 C3.5912979 29.96929811 3.59667541 31.30578366 3.60206985 32.64226913 C3.62370369 38.20453265 3.6424376 43.76679326 3.65369225 49.32908821 C3.66991145 57.2921651 3.70303313 65.25475245 3.76009309 73.21764481 C3.79886547 78.82031155 3.81833379 84.4228478 3.82361281 90.02564514 C3.82725793 93.36962607 3.84170288 96.71267181 3.87171555 100.0565834 C3.9033371 103.79347077 3.9034071 107.52912721 3.89599609 111.26611328 C3.91240143 112.36564835 3.92880676 113.46518341 3.94570923 114.59803772 C3.88966124 121.51246676 2.67431587 125.84625007 -1.6875 131.25 C-2.28433594 131.9925 -2.88117188 132.735 -3.49609375 133.5 C-4.03363281 134.0775 -4.57117188 134.655 -5.125 135.25 C-9.18178305 139.7398601 -12.7912496 144.51097164 -16.234375 149.484375 C-16.71390625 150.06703125 -17.1934375 150.6496875 -17.6875 151.25 C-18.3475 151.25 -19.0075 151.25 -19.6875 151.25 C-19.95046875 151.80558594 -20.2134375 152.36117187 -20.484375 152.93359375 C-21.82439019 155.51355806 -23.31966558 157.89667968 -24.9375 160.3125 C-25.49953125 161.16972656 -26.0615625 162.02695312 -26.640625 162.91015625 C-30.07388243 166.83481503 -33.43110283 168.13198629 -38.59989929 168.61749268 C-40.09609981 168.62913085 -41.59248571 168.62445968 -43.08862305 168.60644531 C-43.91063705 168.60848969 -44.73265106 168.61053406 -45.57957458 168.61264038 C-48.28635204 168.6156383 -50.99251401 168.59719187 -53.69921875 168.578125 C-55.59243113 168.57506377 -57.48564577 168.57319042 -59.37886047 168.57244873 C-63.34567909 168.56785083 -67.31229414 168.55345095 -71.27905273 168.53125 C-76.33803335 168.50306513 -81.39685329 168.49204687 -86.45590496 168.4875679 C-91.30786314 168.48238227 -96.15978194 168.46785643 -101.01171875 168.453125 C-102.3825187 168.45030392 -102.3825187 168.45030392 -103.78101158 168.44742584 C-113.12635625 168.42259571 -122.39617871 168.39674798 -131.6875 167.25 C-132.29125977 164.8996582 -132.29125977 164.8996582 -132.6875 162.25 C-131.02734375 159.85546875 -131.02734375 159.85546875 -128.625 157.4375 C-123.95002426 152.55265692 -119.98882796 147.46192535 -116.05859375 141.9765625 C-115.25615234 140.87441406 -115.25615234 140.87441406 -114.4375 139.75 C-113.71820313 138.74453125 -113.71820313 138.74453125 -112.984375 137.71875 C-112.34242188 136.99171875 -112.34242188 136.99171875 -111.6875 136.25 C-111.0275 136.25 -110.3675 136.25 -109.6875 136.25 C-109.44902344 135.53714844 -109.21054687 134.82429687 -108.96484375 134.08984375 C-107.48035049 130.7894566 -105.6199596 128.54648539 -103.25 125.8125 C-102.34710386 124.7580956 -101.44613709 123.7020367 -100.546875 122.64453125 C-100.07830078 122.09361816 -99.60972656 121.54270508 -99.12695312 120.97509766 C-96.67836922 118.04061769 -94.34329222 115.0187189 -92 112 C-89.11000666 108.28615109 -86.20903565 104.62761012 -83.0625 101.125 C-77.7997657 95.25061619 -73.05976264 88.80839395 -68.6875 82.25 C-68.0275 82.25 -67.3675 82.25 -66.6875 82.25 C-66.44 81.7034375 -66.1925 81.156875 -65.9375 80.59375 C-61.39431948 72.07528652 -54.29221851 64.47805072 -48.09765625 57.125 C-45.21964764 53.69191355 -42.41881071 50.20318878 -39.6328125 46.6953125 C-38.28124963 44.99635997 -36.92124131 43.30410557 -35.5546875 41.6171875 C-31.21909715 36.27755329 -31.21909715 36.27755329 -27.3125 30.625 C-26.77625 29.84125 -26.24 29.0575 -25.6875 28.25 C-25.0275 28.25 -24.3675 28.25 -23.6875 28.25 C-23.30464844 27.40308594 -23.30464844 27.40308594 -22.9140625 26.5390625 C-21.53512461 23.96563064 -19.91047142 21.88526783 -18.0625 19.625 C-17.35480469 18.75359375 -16.64710938 17.8821875 -15.91796875 16.984375 C-14.81388672 15.63085938 -14.81388672 15.63085938 -13.6875 14.25 C-12.24786651 12.46004717 -10.8102843 10.66844213 -9.375 8.875 C-8.73949219 8.08351563 -8.10398437 7.29203125 -7.44921875 6.4765625 C-6.29206858 5.01408889 -5.18129143 3.51346653 -4.125 1.9765625 C-2.6875 0.25 -2.6875 0.25 0 0 Z " fill="#FE4754" transform="translate(394.6875,111.75)"/>
<path d="M0 0 C0 6.94259505 -3.99221656 11.5245121 -8.37890625 16.49609375 C-10 18 -10 18 -12 18 C-12.33 19.32 -12.66 20.64 -13 22 C19.01 22 51.02 22 84 22 C84 22.66 84 23.32 84 24 C80.85845775 25.57077113 77.50155028 25.1383477 74.05297852 25.12939453 C73.23154861 25.13114685 72.41011871 25.13289917 71.563797 25.13470459 C68.83547885 25.1391214 66.10722511 25.13618328 63.37890625 25.1328125 C61.47997526 25.13348617 59.58104435 25.13445672 57.68211365 25.13571167 C53.69146915 25.13718888 49.70084698 25.13503548 45.71020508 25.13037109 C40.61973292 25.12470861 35.52931388 25.12793041 30.43884373 25.13394356 C26.51036691 25.13757839 22.58190243 25.13639663 18.65342522 25.13381577 C16.77853323 25.13315274 14.9036401 25.13395288 13.02874947 25.13629532 C-5.77961032 25.1546164 -5.77961032 25.1546164 -15 24 C-15.60375977 21.6496582 -15.60375977 21.6496582 -16 19 C-14.33984375 16.60546875 -14.33984375 16.60546875 -11.9375 14.1875 C-8.35079537 10.44971733 -5.13043127 6.68840094 -2.09375 2.49609375 C-1 1 -1 1 0 0 Z " fill="#EA868D" transform="translate(278,255)"/>
<path d="M0 0 C1.65 0 3.3 0 5 0 C5.66 1.32 6.32 2.64 7 4 C5.35 3.67 3.7 3.34 2 3 C1.88308248 18.6554758 1.79497089 34.31083332 1.74093914 49.96663761 C1.71518186 57.23628923 1.68007932 64.50566923 1.62280273 71.77514648 C1.57289117 78.1128972 1.54069097 84.45045116 1.52955753 90.78839296 C1.52305165 94.14290414 1.50781447 97.49685254 1.47134972 100.85118294 C1.43504853 104.60042808 1.43005545 108.34850776 1.43237305 112.09790039 C1.41439667 113.20417282 1.39642029 114.31044525 1.37789917 115.45024109 C1.42380799 122.31477017 2.39043183 125.8450407 7 131 C6.505 131.99 6.505 131.99 6 133 C5.0158875 131.73299277 4.03788503 130.4612381 3.0625 129.1875 C2.51722656 128.47980469 1.97195312 127.77210938 1.41015625 127.04296875 C-0.880469 123.72441749 -1.12530374 121.01604874 -1.12698364 117.09703064 C-1.12980347 116.08609848 -1.13262329 115.07516632 -1.13552856 114.03359985 C-1.13350433 112.92543915 -1.1314801 111.81727844 -1.12939453 110.67553711 C-1.13114685 109.50788315 -1.13289917 108.34022919 -1.13470459 107.13719177 C-1.13911555 103.26722743 -1.13618793 99.39730858 -1.1328125 95.52734375 C-1.13348571 92.84599246 -1.13445423 90.16464257 -1.13571167 87.48329163 C-1.13753127 81.86019393 -1.13513228 76.23710937 -1.13037109 70.61401367 C-1.12492623 64.10824976 -1.1266936 57.60251717 -1.1321975 51.09675401 C-1.13673144 45.51454014 -1.13737788 39.93233572 -1.13475883 34.3501206 C-1.13319795 31.0144993 -1.13338848 27.67889599 -1.13629532 24.34327507 C-1.13882298 20.62718433 -1.13497971 16.91115454 -1.12939453 13.19506836 C-1.13243088 11.52979095 -1.13243088 11.52979095 -1.13552856 9.83087158 C-1.13270874 8.82275925 -1.12988892 7.81464691 -1.12698364 6.77598572 C-1.12660662 5.89680449 -1.12622959 5.01762327 -1.12584114 4.11180019 C-1 2 -1 2 0 0 Z " fill="#FED8DD" transform="translate(90,112)"/>
<path d="M0 0 C6.52307692 1.47692308 6.52307692 1.47692308 8.9375 4.125 C9.288125 4.74375 9.63875 5.3625 10 6 C9.67 6.66 9.34 7.32 9 8 C8.05125 7.484375 7.1025 6.96875 6.125 6.4375 C4.578125 5.7259375 4.578125 5.7259375 3 5 C2.01 5.495 2.01 5.495 1 6 C1 43.95 1 81.9 1 121 C1.66 121.33 2.32 121.66 3 122 C3.625 125.0625 3.625 125.0625 4 128 C-0.92733867 123.23160774 -0.92733867 123.23160774 -1.12584114 119.86699581 C-1.12621817 118.97784261 -1.12659519 118.0886894 -1.12698364 117.17259216 C-1.12980347 116.15317535 -1.13262329 115.13375854 -1.13552856 114.08345032 C-1.13350433 112.96077255 -1.1314801 111.83809479 -1.12939453 110.68139648 C-1.13114685 109.50252869 -1.13289917 108.32366089 -1.13470459 107.10906982 C-1.1383586 103.87160729 -1.13749245 100.63418545 -1.1343255 97.39672351 C-1.13179878 94.01391687 -1.13414026 90.63111301 -1.13571167 87.24830627 C-1.1375322 81.56795766 -1.13512984 75.88762204 -1.13037109 70.20727539 C-1.12492608 63.63164398 -1.12669333 57.05604356 -1.1321975 50.4804129 C-1.13672882 44.84218436 -1.13737916 39.20396517 -1.13475883 33.5657354 C-1.1331965 30.19492049 -1.13300115 26.82412018 -1.13629532 23.4533062 C-1.13881997 19.69858545 -1.13498401 15.9439252 -1.12939453 12.18920898 C-1.13141876 11.06450699 -1.13344299 9.93980499 -1.13552856 8.78102112 C-1.13270874 7.76442413 -1.12988892 6.74782715 -1.12698364 5.70042419 C-1.12660662 4.81164802 -1.12622959 3.92287184 -1.12584114 3.00716305 C-1 1 -1 1 0 0 Z " fill="#DF525D" transform="translate(92,114)"/>
<path d="M0 0 C2 1.375 2 1.375 4 3 C4 3.66 4 4.32 4 5 C4.66 5 5.32 5 6 5 C7.58533702 6.71332754 9.09541215 8.49689047 10.5625 10.3125 C11.36816406 11.29863281 12.17382812 12.28476562 13.00390625 13.30078125 C15 16 15 16 16 19 C17.1256934 20.1256934 18.25575258 21.24732587 19.40625 22.34765625 C22.8992527 25.96907817 25.8938447 30.04783421 29 34 C30.33192043 35.66779601 31.66485429 37.33478486 33 39 C32.505 39.99 32.505 39.99 32 41 C29.95880212 39.38405168 27.95927063 37.7143618 26 36 C26 35.34 26 34.68 26 34 C24.515 34.495 24.515 34.495 23 35 C23.12375 34.2575 23.2475 33.515 23.375 32.75 C23.25125 31.8425 23.1275 30.935 23 30 C21.01924973 28.63823419 19.01920337 27.30406884 17 26 C17 24.68 17 23.36 17 22 C16.34 22 15.68 22 15 22 C14.67 20.68 14.34 19.36 14 18 C12.68 18 11.36 18 10 18 C7.58152803 15.49515403 7 14.53986194 7 11 C6.37609375 10.76539063 5.7521875 10.53078125 5.109375 10.2890625 C2.39744059 8.63176925 2.11024003 7.3858401 1.25 4.375 C1.00765625 3.55773437 0.7653125 2.74046875 0.515625 1.8984375 C0.34546875 1.27195312 0.1753125 0.64546875 0 0 Z " fill="#F4979D" transform="translate(243,299)"/>
<path d="M0 0 C0 3.71689634 -1.33037257 4.64096846 -3.703125 7.3203125 C-5.71651294 9.92801375 -6.71468517 12.98230431 -8 16 C-10.0625 18.4375 -10.0625 18.4375 -12 20 C-12.66 20 -13.32 20 -14 20 C-14.33 21.32 -14.66 22.64 -15 24 C-15.66 24 -16.32 24 -17 24 C-17.0928125 25.0828125 -17.0928125 25.0828125 -17.1875 26.1875 C-18.27061906 29.93675828 -20.15028077 31.33613203 -23 34 C-24.15510026 35.3462707 -25.30039317 36.70099736 -26.4375 38.0625 C-29.35230033 41.44392407 -32.15738996 43.75066729 -36 46 C-34.79618552 43.50638429 -33.54571278 41.31856917 -32 39 C-31.34 39 -30.68 39 -30 39 C-29.76152344 38.28714844 -29.52304687 37.57429688 -29.27734375 36.83984375 C-27.79285049 33.5394566 -25.9324596 31.29648539 -23.5625 28.5625 C-22.65960386 27.5080956 -21.75863709 26.4520367 -20.859375 25.39453125 C-20.39080078 24.84361816 -19.92222656 24.29270508 -19.43945312 23.72509766 C-16.99086639 20.7906143 -14.65587421 17.76865953 -12.3125 14.75 C-8.36832874 9.68416179 -4.32315517 4.75104425 0 0 Z " fill="#F4959D" transform="translate(315,209)"/>
<path d="M0 0 C15.84 0.33 31.68 0.66 48 1 C48 1.33 48 1.66 48 2 C5.92749029 5.31189441 5.92749029 5.31189441 0 1 C0 0.67 0 0.34 0 0 Z " fill="#F37C83" transform="translate(190,361)"/>
<path d="M0 0 C0 12.87 0 25.74 0 39 C-0.33 39 -0.66 39 -1 39 C-1 27.12 -1 15.24 -1 3 C-6.29549729 5.02084219 -6.29549729 5.02084219 -8.5 9.5 C-10.6875 13.82638889 -10.6875 13.82638889 -13.8125 15.5625 C-14.534375 15.706875 -15.25625 15.85125 -16 16 C-14.64321859 12.02807513 -12.88322256 9.40636515 -10.0625 6.3125 C-9.02802734 5.16201172 -9.02802734 5.16201172 -7.97265625 3.98828125 C-5.30679359 1.30130284 -3.86233573 0 0 0 Z " fill="#E14C58" transform="translate(396,113)"/>
<path d="M0 0 C1.66666667 1.66666667 3.33333333 3.33333333 5 5 C5.8971875 5.8353125 5.8971875 5.8353125 6.8125 6.6875 C8 8 8 8 8 10 C8.598125 10.226875 9.19625 10.45375 9.8125 10.6875 C12.60188284 12.3611297 13.6168842 14.08817726 15 17 C14 19 14 19 12 22 C8.375 22.1875 8.375 22.1875 5 22 C5.66 20.68 6.32 19.36 7 18 C7.66 18 8.32 18 9 18 C8.42547254 14.06924356 8.42547254 14.06924356 6 11 C6 10.01 6 9.02 6 8 C4.68 7.67 3.36 7.34 2 7 C1.34 4.69 0.68 2.38 0 0 Z " fill="#F24E59" transform="translate(276,340)"/>
<path d="M0 0 C0 4.24645065 -1.81750806 6.38524772 -4 10 C-4.66 10 -5.32 10 -6 10 C-6.13148438 11.09248047 -6.13148438 11.09248047 -6.265625 12.20703125 C-7.14123762 15.53715372 -8.45234961 17.14367278 -10.75 19.6875 C-11.42546875 20.45449219 -12.1009375 21.22148437 -12.796875 22.01171875 C-15.11415129 24.10301951 -17.05350384 25.03672241 -20 26 C-18.37940026 22.45493808 -16.27370948 19.40978743 -14 16.25 C-13.29875 15.26515625 -12.5975 14.2803125 -11.875 13.265625 C-11.25625 12.51796875 -10.6375 11.7703125 -10 11 C-9.34 11 -8.68 11 -8 11 C-7.73445313 10.41734375 -7.46890625 9.8346875 -7.1953125 9.234375 C-5.96697004 6.93825772 -4.59685061 5.19643982 -2.875 3.25 C-2.33617187 2.63640625 -1.79734375 2.0228125 -1.2421875 1.390625 C-0.83226562 0.93171875 -0.42234375 0.4728125 0 0 Z " fill="#EE6D79" transform="translate(379,129)"/>
<path d="M0 0 C0.598125 0.639375 1.19625 1.27875 1.8125 1.9375 C3.90810337 4.20310389 3.90810337 4.20310389 7 5 C7 5.99 7 6.98 7 8 C7.78375 8.061875 8.5675 8.12375 9.375 8.1875 C10.24125 8.455625 11.1075 8.72375 12 9 C13.0625 11.3125 13.0625 11.3125 14 14 C15.31200404 15.35432675 16.64631404 16.68733482 18 18 C21 22.39285714 21 22.39285714 21 26 C20.34 26 19.68 26 19 26 C17.39859233 24.09586877 15.91038918 22.18777853 14.4375 20.1875 C13.54461295 18.99616176 12.65004688 17.80608029 11.75390625 16.6171875 C11.07158936 15.71178223 11.07158936 15.71178223 10.37548828 14.78808594 C7.57288327 11.14479892 4.58607329 7.6527475 1.6171875 4.14453125 C0 2 0 2 0 0 Z " fill="#F3939A" transform="translate(115,267)"/>
<path d="M0 0 C6.52307692 1.47692308 6.52307692 1.47692308 8.9375 4.125 C9.288125 4.74375 9.63875 5.3625 10 6 C9.67 6.66 9.34 7.32 9 8 C8.05125 7.484375 7.1025 6.96875 6.125 6.4375 C4.578125 5.7259375 4.578125 5.7259375 3 5 C2.01 5.495 2.01 5.495 1 6 C0.67 19.2 0.34 32.4 0 46 C-0.33 46 -0.66 46 -1 46 C-1.02527062 39.60962769 -1.04283317 33.21926817 -1.05493164 26.82885742 C-1.05997308 24.65307127 -1.06680607 22.47728853 -1.07543945 20.30151367 C-1.08751338 17.18146933 -1.09323005 14.06146962 -1.09765625 10.94140625 C-1.10281754 9.96224747 -1.10797882 8.98308868 -1.11329651 7.97425842 C-1.11337204 7.07340012 -1.11344757 6.17254181 -1.11352539 5.24438477 C-1.115746 4.44718521 -1.11796661 3.64998566 -1.12025452 2.82862854 C-1 1 -1 1 0 0 Z " fill="#DE525D" transform="translate(92,114)"/>
<path d="M0 0 C0.33 0.99 0.66 1.98 1 3 C-0.22265625 4.796875 -0.22265625 4.796875 -2.0625 6.75 C-2.7121875 7.45125 -3.361875 8.1525 -4.03125 8.875 C-4.6809375 9.57625 -5.330625 10.2775 -6 11 C-7.02524885 12.24638096 -8.04642934 13.49612556 -9.0625 14.75 C-11.72019824 17.88049631 -14.479359 19.90438036 -18 22 C-16.79618552 19.50638429 -15.54571278 17.31856917 -14 15 C-13.34 15 -12.68 15 -12 15 C-11.814375 14.34 -11.62875 13.68 -11.4375 13 C-8.88928586 7.68198787 -4.89469126 3.26312751 0 0 Z " fill="#EB6D7A" transform="translate(297,233)"/>
<path d="M0 0 C1.5 1.375 1.5 1.375 3 3 C3 3.66 3 4.32 3 5 C-14.82 5 -32.64 5 -51 5 C-51 4.67 -51 4.34 -51 4 C-34.5 4 -18 4 -1 4 C-0.67 2.68 -0.34 1.36 0 0 Z " fill="#EC4651" transform="translate(289,358)"/>
<path d="M0 0 C0 6.83718289 -3.87048867 11.38943788 -8.18359375 16.30078125 C-10 18 -10 18 -12.09765625 19.04296875 C-14.3399474 19.97475372 -14.3399474 19.97475372 -16 23 C-15.48655293 18.75103949 -14.25464941 16.75293948 -11.3125 13.6875 C-7.99006976 10.12007041 -4.99709856 6.4701299 -2.12890625 2.53125 C-1 1 -1 1 0 0 Z " fill="#F1828D" transform="translate(278,255)"/>
<path d="M0 0 C2 1.375 2 1.375 4 3 C4 3.66 4 4.32 4 5 C4.66 5 5.32 5 6 5 C9.26869234 8.51384427 11.46772813 11.40318438 13 16 C13.33 16.66 13.66 17.32 14 18 C12.68 18 11.36 18 10 18 C7.58152803 15.49515403 7 14.53986194 7 11 C6.37609375 10.76539063 5.7521875 10.53078125 5.109375 10.2890625 C2.39744059 8.63176925 2.11024003 7.3858401 1.25 4.375 C1.00765625 3.55773437 0.7653125 2.74046875 0.515625 1.8984375 C0.34546875 1.27195312 0.1753125 0.64546875 0 0 Z " fill="#F04C5E" transform="translate(243,299)"/>
<path d="M0 0 C3.88192126 3.76774711 7.79531881 7.62797789 11 12 C11 12.66 11 13.32 11 14 C11.66 14 12.32 14 13 14 C14.625 16 14.625 16 16 18 C15.67 18.66 15.34 19.32 15 20 C11.72285453 18.90761818 11.29700474 18.40972167 9.4375 15.6875 C9.00308594 15.05585938 8.56867188 14.42421875 8.12109375 13.7734375 C7 12 7 12 6 9.8125 C5.00873199 7.72750962 5.00873199 7.72750962 2.375 6 C1.59125 5.34 0.8075 4.68 0 4 C0 2.68 0 1.36 0 0 Z " fill="#F39B9F" transform="translate(133,161)"/>
<path d="M0 0 C3.05566461 2.96306871 5.97135828 6.01720161 8.8125 9.1875 C9.41707031 9.86167969 10.02164063 10.53585937 10.64453125 11.23046875 C12 13 12 13 12 15 C10.35 14.67 8.7 14.34 7 14 C6.9071875 12.824375 6.9071875 12.824375 6.8125 11.625 C6.544375 10.75875 6.27625 9.8925 6 9 C3.52363988 7.62533375 3.52363988 7.62533375 1 7 C0.67 4.69 0.34 2.38 0 0 Z " fill="#F28C92" transform="translate(209,256)"/>
<path d="M0 0 C1.66666667 1.66666667 3.33333333 3.33333333 5 5 C5.763125 5.721875 6.52625 6.44375 7.3125 7.1875 C9 9 9 9 9 11 C9.66 11 10.32 11 11 11 C12.625 13 12.625 13 14 15 C13.67 15.66 13.34 16.32 13 17 C9.49285949 15.10424837 7.05538941 13.46170848 5 10 C5 9.01 5 8.02 5 7 C4.360625 6.773125 3.72125 6.54625 3.0625 6.3125 C1 5 1 5 0.25 2.375 C0.1675 1.59125 0.085 0.8075 0 0 Z " fill="#F4959C" transform="translate(228,280)"/>
<path d="M0 0 C3.68000434 2.75839204 6.49505889 5.62075382 9.3125 9.25 C10.00988281 10.14203125 10.70726562 11.0340625 11.42578125 11.953125 C11.94527344 12.62859375 12.46476563 13.3040625 13 14 C12.67 14.66 12.34 15.32 12 16 C10.0625 15.25 10.0625 15.25 8 14 C7.25 11.875 7.25 11.875 7 10 C5.68 10 4.36 10 3 10 C2.690625 8.906875 2.38125 7.81375 2.0625 6.6875 C1.41662103 4.44592006 0.7376883 2.2130649 0 0 Z " fill="#F38C95" transform="translate(120,145)"/>
<path d="M0 0 C0 3.60777515 -0.9904432 5.06295544 -3 8 C-3.99 8.495 -3.99 8.495 -5 9 C-5.97153663 10.78115049 -6.94303744 12.56232057 -7.9140625 14.34375 C-9.27950688 16.42629826 -10.6438324 17.24266041 -13 18 C-11.44759763 13.03231242 -8.48945219 8.82132943 -5 5 C-4.34 5 -3.68 5 -3 5 C-2.690625 4.360625 -2.38125 3.72125 -2.0625 3.0625 C-1 1 -1 1 0 0 Z " fill="#F6B0B5" transform="translate(331,189)"/>
<path d="M0 0 C0.99 0 1.98 0 3 0 C3 0.66 3 1.32 3 2 C3.99 2 4.98 2 6 2 C6 2.66 6 3.32 6 4 C6.66 4 7.32 4 8 4 C8 5.98 8 7.96 8 10 C3.79236776 8.4972742 2.1972242 5.76667005 0 2 C0 1.34 0 0.68 0 0 Z " fill="#F38891" transform="translate(100,248)"/>
<path d="M0 0 C0.33 0.66 0.66 1.32 1 2 C1.66 2 2.32 2 3 2 C4.7265625 4.1171875 4.7265625 4.1171875 6.625 6.875 C7.25664062 7.77992188 7.88828125 8.68484375 8.5390625 9.6171875 C10 12 10 12 10 14 C6.14076345 12.42771844 3.63906229 10.20967035 1 7 C0.1875 3.1875 0.1875 3.1875 0 0 Z " fill="#F19299" transform="translate(171,208)"/>
<path d="M0 0 C0 4.06888883 -1.59492853 6.83251394 -4 10 C-6.23745262 11.92123876 -8.4982616 13.41235832 -11 15 C-9.44476633 11.50683117 -7.34563239 8.77131239 -4.9375 5.8125 C-4.22464844 4.93207031 -3.51179688 4.05164063 -2.77734375 3.14453125 C-1.88495567 2.06778168 -0.98887464 0.98887464 0 0 Z " fill="#F3A0A7" transform="translate(358,155)"/>
<path d="M0 0 C0 4.67740143 -2.32485429 8.24033576 -5 12 C-7.8125 13.5625 -7.8125 13.5625 -10 14 C-8.62815653 9.93501119 -6.77931541 7.32603439 -3.875 4.1875 C-3.15054687 3.39730469 -2.42609375 2.60710937 -1.6796875 1.79296875 C-1.12539063 1.20128906 -0.57109375 0.60960938 0 0 Z " fill="#F399A2" transform="translate(390,115)"/>
<path d="M0 0 C0 0.99 0 1.98 0 3 C-0.66 3.66 -1.32 4.32 -2 5 C-2.0825 5.78375 -2.165 6.5675 -2.25 7.375 C-3.33581124 11.17533935 -5.68038193 12.09298536 -9 14 C-9 10.23896029 -7.95225128 9.32044189 -5.625 6.4375 C-4.99851562 5.65246094 -4.37203125 4.86742187 -3.7265625 4.05859375 C-2 2 -2 2 0 0 Z " fill="#F69DA4" transform="translate(342,175)"/>
<path d="M0 0 C6.52307692 1.47692308 6.52307692 1.47692308 8.9375 4.125 C9.288125 4.74375 9.63875 5.3625 10 6 C9.67 6.66 9.34 7.32 9 8 C8.05125 7.484375 7.1025 6.96875 6.125 6.4375 C4.578125 5.7259375 4.578125 5.7259375 3 5 C2.01 5.495 2.01 5.495 1 6 C0.67 4.02 0.34 2.04 0 0 Z " fill="#F4747E" transform="translate(92,114)"/>
<path d="M0 0 C0.598125 0.639375 1.19625 1.27875 1.8125 1.9375 C3.90810337 4.20310389 3.90810337 4.20310389 7 5 C7 5.66 7 6.32 7 7 C7.99 7.33 8.98 7.66 10 8 C10.33 9.98 10.66 11.96 11 14 C10.34 13.67 9.68 13.34 9 13 C9 12.34 9 11.68 9 11 C8.34 11 7.68 11 7 11 C5.2734375 9.1015625 5.2734375 9.1015625 3.375 6.625 C2.42753906 5.40683594 2.42753906 5.40683594 1.4609375 4.1640625 C0 2 0 2 0 0 Z " fill="#F5A3A8" transform="translate(179,347)"/>
<path d="M0 0 C6 7.4 6 7.4 6 11 C5.34 11 4.68 11 4 11 C2.67578125 9.609375 2.67578125 9.609375 1.3125 7.75 C0.85488281 7.14671875 0.39726562 6.5434375 -0.07421875 5.921875 C-1 4 -1 4 -0.64453125 1.765625 C-0.43183594 1.18296875 -0.21914062 0.6003125 0 0 Z " fill="#EF858F" transform="translate(130,282)"/>
<path d="M0 0 C3.59634744 3.49359465 6.83451967 7.11098131 10 11 C9.67 11.66 9.34 12.32 9 13 C2.49260042 9.14376321 2.49260042 9.14376321 1.08984375 5.88671875 C0.62451941 3.94614391 0.30093013 1.97276418 0 0 Z " fill="#F39199" transform="translate(149,181)"/>
<path d="M0 0 C3.80666984 1.44390925 5.26602582 3.34952803 7 7 C6 9 6 9 4 12 C3.34 12 2.68 12 2 12 C1.67 11.01 1.34 10.02 1 9 C1.66 9 2.32 9 3 9 C1.78955868 4.39257135 1.78955868 4.39257135 0 0 Z " fill="#FA939B" transform="translate(284,350)"/>
<path d="M0 0 C0.99 0.33 1.98 0.66 3 1 C1.53289058 5.84146109 -1.3512744 9.55948972 -5 13 C-5.66 13 -6.32 13 -7 13 C-6.75 10.625 -6.75 10.625 -6 8 C-5.360625 7.690625 -4.72125 7.38125 -4.0625 7.0625 C-1.64493547 6.10213186 -1.64493547 6.10213186 -0.75 2.875 C-0.5025 1.92625 -0.255 0.9775 0 0 Z " fill="#F59EA7" transform="translate(382,250)"/>
<path d="M0 0 C1.38308641 2.76617283 0.90563946 4.07408791 0 7 C-2.0625 9.3125 -2.0625 9.3125 -4 11 C-4.99 10.67 -5.98 10.34 -7 10 C-6.54625 9.608125 -6.0925 9.21625 -5.625 8.8125 C-3.72065977 6.68842821 -3.01758277 4.64571519 -2 2 C-1.34 1.34 -0.68 0.68 0 0 Z " fill="#EF6C79" transform="translate(346,170)"/>
<path d="M0 0 C2 1.375 2 1.375 4 3 C4 3.66 4 4.32 4 5 C4.66 5 5.32 5 6 5 C7.7143618 6.95927063 9.38405168 8.95880212 11 11 C10.67 11.66 10.34 12.32 10 13 C9.401875 12.360625 8.80375 11.72125 8.1875 11.0625 C6.09189663 8.79689611 6.09189663 8.79689611 3 8 C0 2.77777778 0 2.77777778 0 0 Z " fill="#F4A0A7" transform="translate(243,299)"/>
<path d="M0 0 C2.475 0.495 2.475 0.495 5 1 C5.33 2.65 5.66 4.3 6 6 C6.66 6 7.32 6 8 6 C7.67 7.32 7.34 8.64 7 10 C5.83043409 8.52312468 4.66441854 7.04343707 3.5 5.5625 C2.8503125 4.73878906 2.200625 3.91507812 1.53125 3.06640625 C0 1 0 1 0 0 Z " fill="#F2949D" transform="translate(141,300)"/>
<path d="M0 0 C0.33 0.66 0.66 1.32 1 2 C-1.97 5.63 -4.94 9.26 -8 13 C-8.33 11.68 -8.66 10.36 -9 9 C-8.34 9 -7.68 9 -7 9 C-7 7.68 -7 6.36 -7 5 C-6.401875 4.9175 -5.80375 4.835 -5.1875 4.75 C-2.4033704 3.79544128 -1.56688858 2.42867729 0 0 Z " fill="#F79EA5" transform="translate(395,237)"/>
<path d="M0 0 C0.66 0 1.32 0 2 0 C3.2890625 1.4609375 3.2890625 1.4609375 4.625 3.375 C5.29402344 4.31472656 5.29402344 4.31472656 5.9765625 5.2734375 C7 7 7 7 7 9 C6.01 9 5.02 9 4 9 C3.67 8.34 3.34 7.68 3 7 C2.01 6.67 1.02 6.34 0 6 C0 4.02 0 2.04 0 0 Z " fill="#F4959E" transform="translate(189,231)"/>
<path d="M0 0 C1.65 0 3.3 0 5 0 C5.66 1.32 6.32 2.64 7 4 C5.35 3.67 3.7 3.34 2 3 C1.67 6.3 1.34 9.6 1 13 C0.67 13 0.34 13 0 13 C0 8.71 0 4.42 0 0 Z " fill="#F4AAB0" transform="translate(90,112)"/>
<path d="M0 0 C0 4.07605096 -1.55272534 6.7838181 -4 10 C-6.25 10.9375 -6.25 10.9375 -8 11 C-6.63629701 8.00779732 -5.05091917 5.70973471 -2.875 3.25 C-2.33617187 2.63640625 -1.79734375 2.0228125 -1.2421875 1.390625 C-0.62730469 0.70226562 -0.62730469 0.70226562 0 0 Z " fill="#F39BA0" transform="translate(379,129)"/>
<path d="M0 0 C2.66666667 2.66666667 5.33333333 5.33333333 8 8 C7.67 8.66 7.34 9.32 7 10 C4.625 8.9375 4.625 8.9375 2 7 C0.6875 3.3125 0.6875 3.3125 0 0 Z " fill="#F4969E" transform="translate(276,340)"/>
<path d="M0 0 C2.375 0.6875 2.375 0.6875 5 2 C6.3125 4.625 6.3125 4.625 7 7 C4.69 6.01 2.38 5.02 0 4 C0 2.68 0 1.36 0 0 Z " fill="#F2828F" transform="translate(182,224)"/>
<path d="M0 0 C3.73884332 2.65654657 5.64978174 4.58110387 7 9 C4.37098712 7.47793991 2.15634036 6.15634036 0 4 C0 2.68 0 1.36 0 0 Z " fill="#EF999C" transform="translate(221,271)"/>
<path d="M0 0 C2.66666667 2.66666667 5.33333333 5.33333333 8 8 C7.67 8.66 7.34 9.32 7 10 C5.82174642 9.09827532 4.65768423 8.17798498 3.5 7.25 C2.8503125 6.73953125 2.200625 6.2290625 1.53125 5.703125 C0 4 0 4 0 0 Z " fill="#F39298" transform="translate(196,240)"/>
<path d="M0 0 C0 3.32058331 -0.43061972 5.08543662 -2 8 C-4.625 9.3125 -4.625 9.3125 -7 10 C-5.33248852 6.05860922 -2.77289351 3.2107188 0 0 Z " fill="#F3A1AA" transform="translate(366,145)"/>
<path d="M0 0 C3 3 6 6 9 9 C8.67 9.66 8.34 10.32 8 11 C6.65499045 9.93119777 5.32428562 8.84437492 4 7.75 C3.2575 7.14671875 2.515 6.5434375 1.75 5.921875 C0 4 0 4 0 0 Z " fill="#F4A4A9" transform="translate(105,126)"/>
<path d="M0 0 C4.0369867 1.79421631 6.64480474 3.20551875 9 7 C8.67 7.66 8.34 8.32 8 9 C4.48536988 7.10019993 2.10449322 5.43364683 0 2 C0 1.34 0 0.68 0 0 Z " fill="#F08C94" transform="translate(233,288)"/>
<path d="M0 0 C0 3.39593478 -0.52165948 4.06619881 -2.5 6.6875 C-2.9640625 7.31011719 -3.428125 7.93273437 -3.90625 8.57421875 C-4.2671875 9.04472656 -4.628125 9.51523437 -5 10 C-5.66 9.67 -6.32 9.34 -7 9 C-6.625 7.0625 -6.625 7.0625 -6 5 C-5.34 4.67 -4.68 4.34 -4 4 C-4 3.34 -4 2.68 -4 2 C-2.68 1.34 -1.36 0.68 0 0 Z " fill="#F39CA5" transform="translate(371,267)"/>
<path d="M0 0 C2.875 1.0625 2.875 1.0625 6 3 C7.375 6.6875 7.375 6.6875 8 10 C6.33333333 8.33333333 4.66666667 6.66666667 3 5 C2.401875 4.443125 1.80375 3.88625 1.1875 3.3125 C0 2 0 2 0 0 Z " fill="#F4A1AA" transform="translate(154,316)"/>
<path d="M0 0 C1.32 0 2.64 0 4 0 C4 1.32 4 2.64 4 4 C4.66 4 5.32 4 6 4 C6.33 5.65 6.66 7.3 7 9 C4.03595495 6.19195732 1.55500981 3.81684226 0 0 Z " fill="#F0858C" transform="translate(108,258)"/>
<path d="M0 0 C1 2 1 2 0.375 4.5 C-1 7 -1 7 -3.625 8.3125 C-4.40875 8.539375 -5.1925 8.76625 -6 9 C-4.47291037 5.56404834 -2.40072955 2.88087546 0 0 Z " fill="#F4A4AD" transform="translate(301,226)"/>
<path d="M0 0 C4.875 2.625 4.875 2.625 6 6 C4.35 5.67 2.7 5.34 1 5 C0.67 3.35 0.34 1.7 0 0 Z " fill="#F17B87" transform="translate(215,265)"/>
<path d="M0 0 C0 3.28176588 -0.47835901 5.10888212 -2 8 C-4.125 8.8125 -4.125 8.8125 -6 9 C-4.68775452 5.06326356 -3.08089673 2.77280706 0 0 Z " fill="#F59EA5" transform="translate(278,255)"/>
<path d="M0 0 C0.33 0.66 0.66 1.32 1 2 C-1.17508418 6.69360269 -1.17508418 6.69360269 -4.1875 7.8125 C-4.785625 7.874375 -5.38375 7.93625 -6 8 C-2.25 2.25 -2.25 2.25 0 0 Z " fill="#EB4B59" transform="translate(283,251)"/>
<path d="M0 0 C1 2 1 2 0.4375 3.875 C-1.52809544 6.78066282 -4.03322518 8.19413707 -7 10 C-5.79618552 7.50638429 -4.54571278 5.31856917 -3 3 C-2.34 3 -1.68 3 -1 3 C-0.67 2.01 -0.34 1.02 0 0 Z " fill="#F6A5AD" transform="translate(286,245)"/>
<path d="M0 0 C0 3 0 3 -2.5 5.6875 C-3.325 6.450625 -4.15 7.21375 -5 8 C-5.33 7.34 -5.66 6.68 -6 6 C-4 4 -2 2 0 0 Z " fill="#EF8290" transform="translate(324,199)"/>
<path d="M0 0 C0.33 0.99 0.66 1.98 1 3 C-0.375 4.5 -0.375 4.5 -2 6 C-2.66 6 -3.32 6 -4 6 C-4.99 6.495 -4.99 6.495 -6 7 C-4.60667426 3.63279613 -3.0210714 2.0140476 0 0 Z " fill="#F67D8A" transform="translate(297,233)"/>
<path d="M0 0 C2.475 0.495 2.475 0.495 5 1 C4.67 2.65 4.34 4.3 4 6 C1 4 1 4 0.3125 1.875 C0.209375 1.25625 0.10625 0.6375 0 0 Z " fill="#F0656F" transform="translate(96,242)"/>
<path d="M0 0 C1.70884005 1.62339805 3.37446717 3.29319053 5 5 C5 5.66 5 6.32 5 7 C4.01 7 3.02 7 2 7 C0 4 0 4 0 0 Z " fill="#F28992" transform="translate(165,201)"/>
<path d="M0 0 C0.66 0.99 1.32 1.98 2 3 C0.35 4.32 -1.3 5.64 -3 7 C-3 3.48283697 -2.17554415 2.62878252 0 0 Z " fill="#F04B5A" transform="translate(361,153)"/>
<path d="M0 0 C2.5 2.3125 2.5 2.3125 5 5 C5 5.99 5 6.98 5 8 C2.21611025 6.29374499 1.14615794 5.52373261 0.25 2.3125 C0.1675 1.549375 0.085 0.78625 0 0 Z " fill="#F4AFB4" transform="translate(114,137)"/>
</svg>
